<svg xmlns="http://www.w3.org/2000/svg" xml:space="preserve" style="fill-rule:evenodd;clip-rule:evenodd;stroke-linejoin:round;stroke-miterlimit:2" viewBox="0 0 200 200">
  <path d="M199.7 20c0-11-9-20-20-20h-160c-11 0-20 9-20 20v160c0 11 9 20 20 20h160c11 0 20-9 20-20V20Z" style="fill:#121a2b"/>
  <path d="M83 86.3 62.6 57.7 91.3 78l5.9-59.8L103 78l12.8-4.6-4.5 13 76.9 5.8-76.9 6 41.3 49.5-49.6-41.2-6 75.3-5.8-75.3-19.4 11L83 98l-12.3-5.9L83 86.3Zm22.2 6-8-8.2-8.1 8.1 8 8.1 8.1-8Z" style="fill:#d8dad3"/>
</svg>
